<?xml version="1.0" encoding="UTF-8"?>
<svg id="Camada_2" data-name="Camada 2" xmlns="http://www.w3.org/2000/svg" xmlns:xlink="http://www.w3.org/1999/xlink" viewBox="0 0 91.4 87.99">
  <defs>
    <style>
      .cls-1, .cls-2, .cls-3 {
        fill: none;
      }

      .cls-4 {
        clip-path: url(#clippath-1);
      }

      .cls-2 {
        stroke-width: 2px;
      }

      .cls-2, .cls-3 {
        stroke: #000;
        stroke-miterlimit: 10;
      }

      .cls-5 {
        clip-path: url(#clippath-3);
      }

      .cls-6 {
        clip-path: url(#clippath-2);
      }

      .cls-3 {
        stroke-width: 3.5px;
      }

      .cls-7 {
        clip-path: url(#clippath);
      }
    </style>
    <clipPath id="clippath">
      <rect class="cls-1" width="45.7" height="87.99"/>
    </clipPath>
    <clipPath id="clippath-1">
      <rect class="cls-1" width="45.7" height="87.59"/>
    </clipPath>
    <clipPath id="clippath-2">
      <rect class="cls-1" x="45.7" width="45.7" height="87.99"/>
    </clipPath>
    <clipPath id="clippath-3">
      <rect class="cls-1" x="45.7" width="45.7" height="87.59"/>
    </clipPath>
  </defs>
  <g id="Camada_1-2" data-name="Camada 1">
    <g>
      <g id="_Repetição_do_espelho_" data-name="&amp;lt;Repetição do espelho&amp;gt;">
        <g class="cls-7">
          <g id="_Repetição_do_espelho_2" data-name="&amp;lt;Repetição do espelho&amp;gt;2">
            <g class="cls-4">
              <g>
                <path class="cls-3" d="M50.9,20.45c-2.94-6.16-8.23-11.14-14.51-13.78-6.27-2.64-14.61-2.74-20.98-.49-2.35.88-4.71,2.05-6.57,3.71-3.63,3.22-5.49,7.91-6.18,12.7-1.57,10.55,2.45,21.4,8.63,30.09,6.18,8.7,11.68,14.7,21.17,19.76,6.67,3.56,12.35,10.33,17.25,14.14"/>
                <path class="cls-2" d="M45.38,11.17c-1.08,2.83-2.92,3.39-5.86,4.17-2.45-3.42-4.99-7.11-8.33-9.65-1.76-1.27-2.94-3.06-5-3.74-3.82-1.47-10.62-.61-14.05,1.74-3.43,2.35-5.06,6.3-6.05,10.31"/>
                <path class="cls-2" d="M4.34,42.54c4.47-.62,8.34,2.74,10.73,6.14,2.67,3.79,3.63,8.21,3.41,12.8-.09,1.88-.3,3.53.6,5.29,1.98,3.86,7.51,2.63,11.04,3.13,1.7.24,3.4-.24,5.11.08,6.42,1.2,8.6,8.6,12.83,12.63"/>
                <path class="cls-2" d="M12.29,8.29c-4.79,10.22-5.8,21.95-4.18,33.03.35,2.43.82,4.85,1.35,7.24"/>
              </g>
            </g>
          </g>
        </g>
      </g>
      <g id="_Repetição_do_espelho_-2" data-name="&amp;lt;Repetição do espelho&amp;gt;">
        <g class="cls-6">
          <g id="_Repetição_do_espelho_2-2" data-name="&amp;lt;Repetição do espelho&amp;gt;2">
            <g class="cls-5">
              <g>
                <path class="cls-3" d="M40.5,20.45c2.94-6.16,8.23-11.14,14.51-13.78,6.27-2.64,14.61-2.74,20.98-.49,2.35.88,4.71,2.05,6.57,3.71,3.63,3.22,5.49,7.91,6.18,12.7,1.57,10.55-2.45,21.4-8.63,30.09-6.18,8.7-11.68,14.7-21.17,19.76-6.67,3.56-12.35,10.33-17.25,14.14"/>
                <path class="cls-2" d="M46.02,11.17c1.08,2.83,2.92,3.39,5.86,4.17,2.45-3.42,4.99-7.11,8.33-9.65,1.76-1.27,2.94-3.06,5-3.74,3.82-1.47,10.62-.61,14.05,1.74,3.43,2.35,5.06,6.3,6.05,10.31"/>
                <path class="cls-2" d="M87.06,42.54c-4.47-.62-8.34,2.74-10.73,6.14-2.67,3.79-3.63,8.21-3.41,12.8.09,1.88.3,3.53-.6,5.29-1.98,3.86-7.51,2.63-11.04,3.13-1.7.24-3.4-.24-5.11.08-6.42,1.2-8.6,8.6-12.83,12.63"/>
                <path class="cls-2" d="M79.11,8.29c4.79,10.22,5.8,21.95,4.18,33.03-.35,2.43-.82,4.85-1.35,7.24"/>
              </g>
            </g>
          </g>
        </g>
      </g>
    </g>
  </g>
</svg>