<?xml version="1.0" encoding="UTF-8"?>
<svg id="Camada_2" data-name="Camada 2" xmlns="http://www.w3.org/2000/svg" xmlns:xlink="http://www.w3.org/1999/xlink" viewBox="0 0 91.7 91.4">
  <defs>
    <style>
      .cls-1, .cls-2, .cls-3 {
        fill: none;
      }

      .cls-4 {
        clip-path: url(#clippath-1);
      }

      .cls-2 {
        stroke-width: 2px;
      }

      .cls-2, .cls-3 {
        stroke: #000;
        stroke-miterlimit: 10;
      }

      .cls-5 {
        clip-path: url(#clippath-3);
      }

      .cls-6 {
        clip-path: url(#clippath-2);
      }

      .cls-3 {
        stroke-width: 3.5px;
      }

      .cls-7 {
        clip-path: url(#clippath);
      }
    </style>
    <clipPath id="clippath">
      <rect class="cls-1" width="45.85" height="91.4"/>
    </clipPath>
    <clipPath id="clippath-1">
      <rect class="cls-1" x=".15" width="45.7" height="91.4"/>
    </clipPath>
    <clipPath id="clippath-2">
      <rect class="cls-1" x="45.85" width="45.85" height="91.4"/>
    </clipPath>
    <clipPath id="clippath-3">
      <rect class="cls-1" x="45.85" width="45.7" height="91.4"/>
    </clipPath>
  </defs>
  <g id="Camada_1-2" data-name="Camada 1">
    <g>
      <g id="_Repetição_do_espelho_" data-name="&amp;lt;Repetição do espelho&amp;gt;">
        <g class="cls-7">
          <g id="_Repetição_do_espelho_-2" data-name="&amp;lt;Repetição do espelho&amp;gt;">
            <g class="cls-4">
              <g>
                <path class="cls-3" d="M49.95,1.5c-7.3,6.4-21,11.3-30.6,7.3-2.7,3.8-6.7,7.3-10.9,9.3-2,5.8-2.1,12-1.5,18.1,1.1,9.7,5.1,19,10.6,27,3.6,5.2,7.7,10.2,12.3,14.6,5.2,4.9,11.3,8.9,17.8,11.8"/>
                <path class="cls-2" d="M46.95,9.7c-5.3,4.4-7.46,5.82-14.32,6.51-2.96.3-9.14-.3-11.04-1.7-3.85,7.11-16.78,8.64-19.78,8.74,0,0,3.64,5.55,3.94,6.15,1.4,2.1,2.8,4.1,4.1,6.2,4.2,7,6.7,15.6,5.3,23.8s.6,9,2.4,11.9c5.8,9,24.7,8.4,29.5,13.1"/>
              </g>
            </g>
          </g>
        </g>
      </g>
      <g id="_Repetição_do_espelho_-3" data-name="&amp;lt;Repetição do espelho&amp;gt;">
        <g class="cls-6">
          <g id="_Repetição_do_espelho_-4" data-name="&amp;lt;Repetição do espelho&amp;gt;">
            <g class="cls-5">
              <g>
                <path class="cls-3" d="M41.75,1.5c7.3,6.4,21,11.3,30.6,7.3,2.7,3.8,6.7,7.3,10.9,9.3,2,5.8,2.1,12,1.5,18.1-1.1,9.7-5.1,19-10.6,27-3.6,5.2-7.7,10.2-12.3,14.6-5.2,4.9-11.3,8.9-17.8,11.8"/>
                <path class="cls-2" d="M44.75,9.7c5.3,4.4,7.46,5.82,14.32,6.51,2.96.3,9.14-.3,11.04-1.7,3.85,7.11,16.78,8.64,19.78,8.74,0,0-3.64,5.55-3.94,6.15-1.4,2.1-2.8,4.1-4.1,6.2-4.2,7-6.7,15.6-5.3,23.8s-.6,9-2.4,11.9c-5.8,9-24.7,8.4-29.5,13.1"/>
              </g>
            </g>
          </g>
        </g>
      </g>
    </g>
  </g>
</svg>