<?xml version="1.0" encoding="UTF-8"?>
<svg id="Camada_2" data-name="Camada 2" xmlns="http://www.w3.org/2000/svg" xmlns:xlink="http://www.w3.org/1999/xlink" viewBox="0 0 89.9 81.1">
  <defs>
    <style>
      .cls-1, .cls-2, .cls-3 {
        fill: none;
      }

      .cls-4 {
        clip-path: url(#clippath-1);
      }

      .cls-2 {
        stroke-width: 2px;
      }

      .cls-2, .cls-3 {
        stroke: #000;
        stroke-miterlimit: 10;
      }

      .cls-5 {
        clip-path: url(#clippath-3);
      }

      .cls-6 {
        clip-path: url(#clippath-2);
      }

      .cls-3 {
        stroke-width: 3.5px;
      }

      .cls-7 {
        clip-path: url(#clippath);
      }
    </style>
    <clipPath id="clippath">
      <rect class="cls-1" width="44.95" height="81.1"/>
    </clipPath>
    <clipPath id="clippath-1">
      <rect class="cls-1" x=".55" y=".55" width="44.4" height="80.1"/>
    </clipPath>
    <clipPath id="clippath-2">
      <rect class="cls-1" x="44.95" width="44.95" height="81.1"/>
    </clipPath>
    <clipPath id="clippath-3">
      <rect class="cls-1" x="44.95" y=".55" width="44.4" height="80.1"/>
    </clipPath>
  </defs>
  <g id="Camada_1-2" data-name="Camada 1">
    <g>
      <g id="_Repetição_do_espelho_" data-name="&amp;lt;Repetição do espelho&amp;gt;">
        <g class="cls-7">
          <g id="_Repetição_do_espelho_6" data-name="&amp;lt;Repetição do espelho&amp;gt;6">
            <g class="cls-4">
              <g>
                <path class="cls-3" d="M45.85,1.75H15.35C12.45,6.65,7.25,10.35,1.75,11.75v58.5c2.9,0,5.4,1,7.7,2.7s4.2,4,5.8,6.4h43.9"/>
                <path class="cls-2" d="M46.45,5.65H3.73c1.5,1.2,4.48,5.82,4.78,7.82.3,2-.66,3.97-2.46,4.67v47.89c.1,2.9-1.1,4.53-3.2,6.63-.6.5-1.2,1.1-1.3,1.8-.1.7.3,1.5.9,1.9s1.4.5,2.2.5c2.1,0,4.1-1.1,6.2-1.6,1.8-.4,3.7-.4,5.5,0h32"/>
              </g>
            </g>
          </g>
        </g>
      </g>
      <g id="_Repetição_do_espelho_-2" data-name="&amp;lt;Repetição do espelho&amp;gt;">
        <g class="cls-6">
          <g id="_Repetição_do_espelho_6-2" data-name="&amp;lt;Repetição do espelho&amp;gt;6">
            <g class="cls-5">
              <g>
                <path class="cls-3" d="M44.05,1.75h30.5c2.9,4.9,8.1,8.6,13.6,10v58.5c-2.9,0-5.4,1-7.7,2.7s-4.2,4-5.8,6.4H30.75"/>
                <path class="cls-2" d="M43.45,5.65h42.72c-1.5,1.2-4.48,5.82-4.78,7.82-.3,2,.66,3.97,2.46,4.67v47.89c-.1,2.9,1.1,4.53,3.2,6.63.6.5,1.2,1.1,1.3,1.8.1.7-.3,1.5-.9,1.9s-1.4.5-2.2.5c-2.1,0-4.1-1.1-6.2-1.6-1.8-.4-3.7-.4-5.5,0h-32"/>
              </g>
            </g>
          </g>
        </g>
      </g>
    </g>
  </g>
</svg>