<?xml version="1.0" encoding="UTF-8"?>
<svg id="Camada_1" data-name="Camada 1" xmlns="http://www.w3.org/2000/svg" xmlns:xlink="http://www.w3.org/1999/xlink" viewBox="0 0 122.22 133.45">
  <defs>
    <style>
      .cls-1, .cls-2, .cls-3 {
        fill: none;
      }

      .cls-4 {
        clip-path: url(#clippath-1);
      }

      .cls-2 {
        stroke-width: 2px;
      }

      .cls-2, .cls-3 {
        stroke: #000;
        stroke-miterlimit: 10;
      }

      .cls-3 {
        stroke-width: 4px;
      }

      .cls-5 {
        clip-path: url(#clippath);
      }
    </style>
    <clipPath id="clippath">
      <rect class="cls-1" x="1.3" y="1.2" width="59.7" height="130.14"/>
    </clipPath>
    <clipPath id="clippath-1">
      <rect class="cls-1" x="61" y="1.2" width="59.7" height="130.14"/>
    </clipPath>
  </defs>
  <g id="_Repetição_do_espelho_" data-name="&amp;lt;Repetição do espelho&amp;gt;">
    <g class="cls-5">
      <path class="cls-3" d="M65.34,7.32H17.23c-.67,6.31-6.1,12.08-12.9,13.21,0,14.81,1.56,28.96,1.56,43.77,0,16.3-1.56,33.26-1.56,49.56,5.69,4.5,11.39,8.99,17.08,13.49,14.92,0,10.1.05,25.03.05"/>
      <path class="cls-2" d="M16.58,6.95h-8.47,0c1.92,39.83,1.93,79.72.01,119.55v.24s16.27,0,16.27,0"/>
      <path class="cls-2" d="M60.07,6.98c-4.87.49-9.54-1.69-14.17-3.27s-10.07-2.49-14.14.22c-3.05,2.03-4.64,5.68-7.46,8.02-2.82,2.34-6.65,3.17-10.31,3.01s-7.22-1.21-10.73-2.25c0,3.42,0,6.83,0,10.25"/>
      <path class="cls-2" d="M9.26,99.61c-.5,8.06-2.67,16-6.33,23.2,5.31-.02,10.61-.03,15.92-.05,7.07-.02,14.3,1.34,20.6,4.63"/>
      <ellipse class="cls-3" cx="61" cy="108.42" rx="34.53" ry="20.92"/>
      <path class="cls-2" d="M59.46,86.52c-.65,2.52-2.96,4.23-5.24,5.48-2.85,1.56-5.91,2.72-9.06,3.51-6.66,1.67-13.03,1.06-19.35,3.75-3.74,1.59-6.66,6.01-6.67,10.07s.99,6.62,4.65,9.73c-4.44-.12-7.76.03-12.2-.09"/>
    </g>
  </g>
  <g id="_Repetição_do_espelho_-2" data-name="&amp;lt;Repetição do espelho&amp;gt;">
    <g class="cls-4">
      <path class="cls-3" d="M56.66,7.32h48.11c.67,6.31,6.1,12.08,12.9,13.21,0,14.81-1.56,28.96-1.56,43.77,0,16.3,1.56,33.26,1.56,49.56-5.69,4.5-11.39,8.99-17.08,13.49-14.92,0-10.1.05-25.03.05"/>
      <path class="cls-2" d="M105.42,6.95h8.47,0c-1.92,39.83-1.93,79.72-.01,119.55v.24s-16.27,0-16.27,0"/>
      <path class="cls-2" d="M61.93,6.98c4.87.49,9.54-1.69,14.17-3.27s10.07-2.49,14.14.22c3.05,2.03,4.64,5.68,7.46,8.02,2.82,2.34,6.65,3.17,10.31,3.01s7.22-1.21,10.73-2.25c0,3.42,0,6.83,0,10.25"/>
      <path class="cls-2" d="M112.74,99.61c.5,8.06,2.67,16,6.33,23.2-5.31-.02-10.61-.03-15.92-.05-7.07-.02-14.3,1.34-20.6,4.63"/>
      <ellipse class="cls-3" cx="61" cy="108.42" rx="34.53" ry="20.92"/>
      <path class="cls-2" d="M62.54,86.52c.65,2.52,2.96,4.23,5.24,5.48,2.85,1.56,5.91,2.72,9.06,3.51,6.66,1.67,13.03,1.06,19.35,3.75,3.74,1.59,6.66,6.01,6.67,10.07s-.99,6.62-4.65,9.73c4.44-.12,7.76.03,12.2-.09"/>
    </g>
  </g>
</svg>